<mxfile host="app.diagrams.net" modified="2024-06-11T11:50:42.137Z" agent="Mozilla/5.0 (X11; Linux x86_64; rv:109.0) Gecko/20100101 Firefox/115.0" etag="bd00ESBitnUh4OIwy3yz" version="24.5.2" type="device">
  <diagram name="Страница — 1" id="ngxuZgw1lHkq9T3xPRPb">
    <mxGraphModel dx="1085" dy="493" grid="1" gridSize="10" guides="1" tooltips="1" connect="1" arrows="1" fold="1" page="1" pageScale="1" pageWidth="827" pageHeight="1169" math="0" shadow="0">
      <root>
        <mxCell id="0" />
        <mxCell id="1" parent="0" />
        <mxCell id="cuJzFtYW93wMXYlukHWC-1" value="ПЛК" style="rounded=0;whiteSpace=wrap;html=1;" parent="1" vertex="1">
          <mxGeometry x="320" y="350" width="80" height="80" as="geometry" />
        </mxCell>
        <mxCell id="cuJzFtYW93wMXYlukHWC-2" value="Пульт управління" style="whiteSpace=wrap;html=1;aspect=fixed;" parent="1" vertex="1">
          <mxGeometry x="480" y="350" width="80" height="80" as="geometry" />
        </mxCell>
        <mxCell id="cuJzFtYW93wMXYlukHWC-3" value="Блок електроприводу" style="rounded=0;whiteSpace=wrap;html=1;" parent="1" vertex="1">
          <mxGeometry x="300" y="565" width="120" height="80" as="geometry" />
        </mxCell>
        <mxCell id="cuJzFtYW93wMXYlukHWC-4" value="" style="endArrow=classic;html=1;rounded=0;exitX=1;exitY=0.25;exitDx=0;exitDy=0;entryX=0;entryY=0.25;entryDx=0;entryDy=0;" parent="1" source="cuJzFtYW93wMXYlukHWC-1" target="cuJzFtYW93wMXYlukHWC-2" edge="1">
          <mxGeometry width="50" height="50" relative="1" as="geometry">
            <mxPoint x="650" y="470" as="sourcePoint" />
            <mxPoint x="700" y="420" as="targetPoint" />
          </mxGeometry>
        </mxCell>
        <mxCell id="cuJzFtYW93wMXYlukHWC-5" value="" style="endArrow=classic;html=1;rounded=0;exitX=0;exitY=0.5;exitDx=0;exitDy=0;entryX=1;entryY=0.5;entryDx=0;entryDy=0;" parent="1" source="cuJzFtYW93wMXYlukHWC-2" target="cuJzFtYW93wMXYlukHWC-1" edge="1">
          <mxGeometry width="50" height="50" relative="1" as="geometry">
            <mxPoint x="580" y="460" as="sourcePoint" />
            <mxPoint x="630" y="410" as="targetPoint" />
          </mxGeometry>
        </mxCell>
        <mxCell id="cuJzFtYW93wMXYlukHWC-6" value="" style="endArrow=classic;html=1;rounded=0;exitX=0.788;exitY=-0.017;exitDx=0;exitDy=0;exitPerimeter=0;entryX=0.5;entryY=0;entryDx=0;entryDy=0;" parent="1" target="cuJzFtYW93wMXYlukHWC-8" edge="1">
          <mxGeometry width="50" height="50" relative="1" as="geometry">
            <mxPoint x="359.7600000000002" y="430" as="sourcePoint" />
            <mxPoint x="360" y="509.9999999999999" as="targetPoint" />
          </mxGeometry>
        </mxCell>
        <mxCell id="cuJzFtYW93wMXYlukHWC-8" value="Живлення електроприводу" style="rounded=0;whiteSpace=wrap;html=1;" parent="1" vertex="1">
          <mxGeometry x="300" y="470" width="120" height="60" as="geometry" />
        </mxCell>
        <mxCell id="cuJzFtYW93wMXYlukHWC-9" value="" style="endArrow=classic;html=1;rounded=0;entryX=0.5;entryY=0;entryDx=0;entryDy=0;exitX=0.5;exitY=1;exitDx=0;exitDy=0;" parent="1" source="cuJzFtYW93wMXYlukHWC-8" target="cuJzFtYW93wMXYlukHWC-3" edge="1">
          <mxGeometry width="50" height="50" relative="1" as="geometry">
            <mxPoint x="361" y="574" as="sourcePoint" />
            <mxPoint x="560" y="550" as="targetPoint" />
          </mxGeometry>
        </mxCell>
        <mxCell id="LoyTNwT3jCl4n2alEZxw-2" style="edgeStyle=orthogonalEdgeStyle;rounded=0;orthogonalLoop=1;jettySize=auto;html=1;entryX=1;entryY=0.5;entryDx=0;entryDy=0;" parent="1" source="cuJzFtYW93wMXYlukHWC-16" target="cuJzFtYW93wMXYlukHWC-2" edge="1">
          <mxGeometry relative="1" as="geometry" />
        </mxCell>
        <mxCell id="cuJzFtYW93wMXYlukHWC-16" value="Блок клавіатури" style="rounded=0;whiteSpace=wrap;html=1;" parent="1" vertex="1">
          <mxGeometry x="600" y="365" width="80" height="50" as="geometry" />
        </mxCell>
        <mxCell id="cuJzFtYW93wMXYlukHWC-21" value="Блок індикації" style="rounded=0;whiteSpace=wrap;html=1;" parent="1" vertex="1">
          <mxGeometry x="265" y="180" width="190" height="80" as="geometry" />
        </mxCell>
        <mxCell id="cuJzFtYW93wMXYlukHWC-25" value="Джерело живлення" style="rounded=0;whiteSpace=wrap;html=1;" parent="1" vertex="1">
          <mxGeometry x="150" y="330" width="70" height="140" as="geometry" />
        </mxCell>
        <mxCell id="cuJzFtYW93wMXYlukHWC-26" value="" style="endArrow=classic;html=1;rounded=0;exitX=1;exitY=0.25;exitDx=0;exitDy=0;entryX=0.012;entryY=0.185;entryDx=0;entryDy=0;fontStyle=4;entryPerimeter=0;" parent="1" source="cuJzFtYW93wMXYlukHWC-25" target="cuJzFtYW93wMXYlukHWC-1" edge="1">
          <mxGeometry width="50" height="50" relative="1" as="geometry">
            <mxPoint x="380" y="450" as="sourcePoint" />
            <mxPoint x="430" y="400" as="targetPoint" />
            <Array as="points">
              <mxPoint x="280" y="365" />
            </Array>
          </mxGeometry>
        </mxCell>
        <mxCell id="cuJzFtYW93wMXYlukHWC-28" value="" style="endArrow=classic;html=1;rounded=0;exitX=1;exitY=0.5;exitDx=0;exitDy=0;entryX=0;entryY=0.5;entryDx=0;entryDy=0;" parent="1" target="cuJzFtYW93wMXYlukHWC-8" edge="1">
          <mxGeometry width="50" height="50" relative="1" as="geometry">
            <mxPoint x="220" y="430" as="sourcePoint" />
            <mxPoint x="380" y="470" as="targetPoint" />
            <Array as="points">
              <mxPoint x="260" y="430" />
              <mxPoint x="260" y="500" />
            </Array>
          </mxGeometry>
        </mxCell>
        <mxCell id="cuJzFtYW93wMXYlukHWC-29" value="" style="endArrow=classic;html=1;rounded=0;exitX=0.5;exitY=0;exitDx=0;exitDy=0;entryX=0.5;entryY=0;entryDx=0;entryDy=0;" parent="1" source="cuJzFtYW93wMXYlukHWC-25" target="cuJzFtYW93wMXYlukHWC-2" edge="1">
          <mxGeometry width="50" height="50" relative="1" as="geometry">
            <mxPoint x="230" y="390" as="sourcePoint" />
            <mxPoint x="280" y="340" as="targetPoint" />
            <Array as="points">
              <mxPoint x="185" y="310" />
              <mxPoint x="260" y="310" />
              <mxPoint x="520" y="310" />
            </Array>
          </mxGeometry>
        </mxCell>
        <mxCell id="cuJzFtYW93wMXYlukHWC-30" value="" style="endArrow=classic;html=1;rounded=0;exitX=1.01;exitY=0.14;exitDx=0;exitDy=0;entryX=0.451;entryY=1.011;entryDx=0;entryDy=0;entryPerimeter=0;exitPerimeter=0;" parent="1" source="cuJzFtYW93wMXYlukHWC-25" target="cuJzFtYW93wMXYlukHWC-21" edge="1">
          <mxGeometry width="50" height="50" relative="1" as="geometry">
            <mxPoint x="210" y="410" as="sourcePoint" />
            <mxPoint x="260" y="360" as="targetPoint" />
            <Array as="points">
              <mxPoint x="280" y="350" />
              <mxPoint x="280" y="300" />
              <mxPoint x="350" y="300" />
            </Array>
          </mxGeometry>
        </mxCell>
        <mxCell id="cuJzFtYW93wMXYlukHWC-32" value="Датчик температури" style="rounded=0;whiteSpace=wrap;html=1;" parent="1" vertex="1">
          <mxGeometry x="480" y="565" width="90" height="60" as="geometry" />
        </mxCell>
        <mxCell id="cuJzFtYW93wMXYlukHWC-34" value="" style="endArrow=classic;html=1;rounded=0;entryX=1;entryY=0.75;entryDx=0;entryDy=0;exitX=0.453;exitY=-0.003;exitDx=0;exitDy=0;exitPerimeter=0;" parent="1" source="cuJzFtYW93wMXYlukHWC-32" target="cuJzFtYW93wMXYlukHWC-1" edge="1">
          <mxGeometry width="50" height="50" relative="1" as="geometry">
            <mxPoint x="520" y="570" as="sourcePoint" />
            <mxPoint x="500" y="550" as="targetPoint" />
            <Array as="points">
              <mxPoint x="520" y="460" />
              <mxPoint x="460" y="460" />
              <mxPoint x="460" y="410" />
            </Array>
          </mxGeometry>
        </mxCell>
        <mxCell id="cuJzFtYW93wMXYlukHWC-35" value="Датчик швидкості" style="rounded=0;whiteSpace=wrap;html=1;" parent="1" vertex="1">
          <mxGeometry x="160" y="565" width="80" height="60" as="geometry" />
        </mxCell>
        <mxCell id="cuJzFtYW93wMXYlukHWC-37" value="" style="endArrow=classic;html=1;rounded=0;entryX=0;entryY=0.75;entryDx=0;entryDy=0;exitX=0.75;exitY=0;exitDx=0;exitDy=0;" parent="1" source="cuJzFtYW93wMXYlukHWC-35" target="cuJzFtYW93wMXYlukHWC-1" edge="1">
          <mxGeometry width="50" height="50" relative="1" as="geometry">
            <mxPoint x="220" y="570" as="sourcePoint" />
            <mxPoint x="380" y="410" as="targetPoint" />
            <Array as="points">
              <mxPoint x="220" y="490" />
              <mxPoint x="280" y="490" />
              <mxPoint x="280" y="410" />
            </Array>
          </mxGeometry>
        </mxCell>
        <mxCell id="LoyTNwT3jCl4n2alEZxw-3" style="edgeStyle=orthogonalEdgeStyle;rounded=0;orthogonalLoop=1;jettySize=auto;html=1;entryX=0.5;entryY=1;entryDx=0;entryDy=0;" parent="1" source="cuJzFtYW93wMXYlukHWC-1" target="cuJzFtYW93wMXYlukHWC-21" edge="1">
          <mxGeometry relative="1" as="geometry" />
        </mxCell>
        <mxCell id="LoyTNwT3jCl4n2alEZxw-5" value="" style="endArrow=classic;html=1;rounded=0;exitX=0.75;exitY=0;exitDx=0;exitDy=0;entryX=0.606;entryY=0.988;entryDx=0;entryDy=0;entryPerimeter=0;" parent="1" source="cuJzFtYW93wMXYlukHWC-1" target="cuJzFtYW93wMXYlukHWC-21" edge="1">
          <mxGeometry width="50" height="50" relative="1" as="geometry">
            <mxPoint x="360" y="320" as="sourcePoint" />
            <mxPoint x="410" y="270" as="targetPoint" />
          </mxGeometry>
        </mxCell>
        <mxCell id="LoyTNwT3jCl4n2alEZxw-6" value="" style="endArrow=classic;html=1;rounded=0;exitX=0.857;exitY=0;exitDx=0;exitDy=0;exitPerimeter=0;entryX=0.238;entryY=1.008;entryDx=0;entryDy=0;entryPerimeter=0;" parent="1" source="cuJzFtYW93wMXYlukHWC-25" target="cuJzFtYW93wMXYlukHWC-21" edge="1">
          <mxGeometry width="50" height="50" relative="1" as="geometry">
            <mxPoint x="380" y="330" as="sourcePoint" />
            <mxPoint x="341" y="260" as="targetPoint" />
            <Array as="points">
              <mxPoint x="210" y="290" />
              <mxPoint x="310" y="290" />
            </Array>
          </mxGeometry>
        </mxCell>
      </root>
    </mxGraphModel>
  </diagram>
</mxfile>
